<?xml version="1.0" encoding="UTF-8"?>
<!DOCTYPE svg PUBLIC "-//W3C//DTD SVG 1.1//EN" "http://www.w3.org/Graphics/SVG/1.1/DTD/svg11.dtd">
<!-- Creator: CorelDRAW -->
<svg xmlns="http://www.w3.org/2000/svg" xml:space="preserve" width="128px" height="128px" style="shape-rendering:geometricPrecision; text-rendering:geometricPrecision; image-rendering:optimizeQuality; fill-rule:evenodd; clip-rule:evenodd"
viewBox="0 0 128 128"
 xmlns:xlink="http://www.w3.org/1999/xlink">
 <defs>
  <style type="text/css">
   <![CDATA[
    .str0 {stroke:black;stroke-width:0.755907}
    .fil1 {fill:red}
    .fil0 {fill:white}
   ]]>
  </style>
 </defs>
 <g id="bg">
  <metadata id="CorelCorpID_0Corel-Layer"/>
  <rect class="fil0" transform="matrix(2.64845E-014 -1 1 2.64845E-014 -1.69109E-012 128)" width="128" height="128"/>
 </g>
 <g id="planeH">
  <metadata id="CorelCorpID_1Corel-Layer"/>
  <path class="fil1 str0" d="M35.4532 53.2703c0.791813,-7.6271 2.59919,-12.9589 4.70174,-12.9589 1.52542,0 2.89512,2.80668 3.83472,7.25897l12.316 -8.22351 0 -13.5969 0 -12.8315c0,-3.25909 4.05809,-9.29539 7.68682,-9.29539 3.62873,0 7.70194,5.55516 7.70194,9.29539l0 12.8315 0 13.5969 12.316 8.22351c0.939592,-4.45229 2.3093,-7.25897 3.83472,-7.25897 2.10256,0 3.90993,5.33179 4.70174,12.9589l7.39882 4.94023c0.940726,-3.82489 2.33046,-6.2453 3.88007,-6.2453 2.23635,0 4.13859,5.04077 4.84045,12.0684l12.3784 8.26509 0 16.4168 -13.7239 -5.48713c-0.916159,3.00322 -2.14451,4.84121 -3.49494,4.84121 -1.76731,0 -3.32637,-3.14835 -4.24895,-7.9374l-8.04134 -3.21525c-0.932789,4.06905 -2.24164,6.60134 -3.69034,6.60134 -1.79755,0 -3.37928,-3.89746 -4.29506,-9.79391l-11.8556 -4.73991 0 32.2217 17.559 14.6816 0 6.88669 -18.4105 -4.12461 -6.84285 0 -6.84285 0 -18.4105 4.12461 0 -6.88669 17.559 -14.6816 0 -32.2217 -11.8556 4.73991c-0.915781,5.89645 -2.49752,9.79391 -4.29506,9.79391 -1.4487,0 -2.75755,-2.53229 -3.69034,-6.60134l-8.04134 3.21525c-0.922584,4.78905 -2.48164,7.9374 -4.24895,7.9374 -1.35043,0 -2.57878,-1.83799 -3.49494,-4.84121l-13.7239 5.48713 0 -16.4168 12.3784 -8.26509c0.70186,-7.02767 2.6041,-12.0684 4.84045,-12.0684 1.54961,0 2.93934,2.42041 3.88007,6.2453l7.39882 -4.94023z"/>
 </g>
</svg>
