<?xml version="1.0" encoding="UTF-8"?>
<!DOCTYPE svg PUBLIC "-//W3C//DTD SVG 1.1//EN" "http://www.w3.org/Graphics/SVG/1.1/DTD/svg11.dtd">
<!-- Creator: CorelDRAW -->
<svg xmlns="http://www.w3.org/2000/svg" xml:space="preserve" width="128px" height="128px" style="shape-rendering:geometricPrecision; text-rendering:geometricPrecision; image-rendering:optimizeQuality; fill-rule:evenodd; clip-rule:evenodd"
viewBox="0 0 128 128"
 xmlns:xlink="http://www.w3.org/1999/xlink">
 <defs>
  <style type="text/css">
   <![CDATA[
    .str0 {stroke:black;stroke-width:0.755907}
    .fil1 {fill:red}
    .fil0 {fill:white}
   ]]>
  </style>
 </defs>
 <g id="bg">
  <metadata id="CorelCorpID_0Corel-Layer"/>
  <rect class="fil0" transform="matrix(2.64845E-014 -1 1 2.64845E-014 -1.69109E-012 128)" width="128" height="128"/>
 </g>
 <g id="planeL">
  <metadata id="CorelCorpID_1Corel-Layer"/>
  <path class="fil1 str0" d="M57.6954 78.3407l0 -17.0975 -27.2486 -0.626269 0 -14.7307 27.2486 -1.01783 0 -3.69676 0 -3.823c0,-3.22281 3.32523,-9.19183 6.2986,-9.19183 2.97298,0 6.31069,5.49355 6.31069,9.19183l0 3.823 0 3.69676 27.2486 1.01783 0 14.7307 -27.2486 0.626269 0 17.0975 12.6236 2.84864 0 7.05072 -12.9865 -0.425954 -5.94181 0 -5.94181 0 -12.9865 0.425954 0 -7.05072 12.6236 -2.84864z"/>
 </g>
</svg>
